<?xml version="1.0" encoding="utf-8"?>
<!-- Generator: Adobe Illustrator 16.0.0, SVG Export Plug-In . SVG Version: 6.00 Build 0)  -->
<!DOCTYPE svg PUBLIC "-//W3C//DTD SVG 1.0//EN" "http://www.w3.org/TR/2001/REC-SVG-20010904/DTD/svg10.dtd">
<svg version="1.0" id="Camada_1" xmlns="http://www.w3.org/2000/svg" xmlns:xlink="http://www.w3.org/1999/xlink" x="0px" y="0px"
	 width="200px" height="60px" viewBox="0 0 200 60" enable-background="new 0 0 200 60" xml:space="preserve">
<g>
	<path fill="#FFFFFF" d="M22.555,28.063c0.423-0.325,0.895-0.395,1.416-0.208c0.521,0.188,0.867,0.5,1.038,0.94
		s0.11,0.912-0.183,1.416c-0.146,0.195-0.537,0.603-1.172,1.221s-1.526,1.399-2.673,2.344s-2.36,1.844-3.638,2.698
		c-1.278,0.854-2.682,1.586-4.211,2.197c-1.53,0.609-2.938,0.915-4.224,0.915c-1.481,0-2.641-0.452-3.479-1.354
		c-0.838-0.904-1.257-2.201-1.257-3.895c0-1.66,0.5-3.345,1.501-5.054s2.229-3.101,3.687-4.175c1.457-1.074,2.836-1.611,4.138-1.611
		c0.879,0,1.64,0.273,2.283,0.818c0.643,0.545,0.964,1.306,0.964,2.283c0,0.635-0.122,1.172-0.366,1.611s-0.635,0.659-1.172,0.659
		c-0.603,0-1.03-0.244-1.282-0.732c-0.252-0.488-0.362-0.903-0.33-1.245c-1.563,0.651-2.942,1.774-4.138,3.369
		s-1.794,3.117-1.794,4.565c0,0.358,0.004,0.599,0.012,0.72c0.008,0.123,0.049,0.253,0.122,0.391
		c0.073,0.139,0.191,0.225,0.354,0.257c0.163,0.033,0.398,0.049,0.708,0.049c0.895,0,1.88-0.195,2.954-0.586
		s2.079-0.875,3.015-1.453c0.936-0.577,1.88-1.221,2.832-1.928c0.952-0.709,1.753-1.351,2.405-1.929
		c0.651-0.578,1.225-1.099,1.721-1.563C22.282,28.32,22.538,28.08,22.555,28.063z"/>
	<path fill="#FFFFFF" d="M29.952,8.654c0.26-0.423,0.578-0.712,0.952-0.867c0.374-0.154,0.724-0.175,1.05-0.061
		c0.325,0.114,0.626,0.289,0.903,0.525c0.276,0.236,0.452,0.542,0.525,0.916c0.073,0.375,0.037,0.749-0.11,1.123
		C27.82,22.66,23.409,34.623,20.04,46.179c-0.179,0.586-0.569,0.948-1.172,1.087c-0.602,0.138-1.139,0.016-1.611-0.367
		c-0.472-0.382-0.635-0.924-0.488-1.623c0.83-3.842,2.694-9.77,5.591-17.786C25.256,19.474,27.787,13.195,29.952,8.654z"/>
	<path fill="#FFFFFF" d="M47.237,28.063c0.342-0.26,0.704-0.37,1.086-0.33c0.382,0.041,0.688,0.191,0.916,0.452
		c0.228,0.261,0.382,0.57,0.464,0.928c0.081,0.358-0.008,0.725-0.269,1.099c-0.098,0.146-0.444,0.497-1.038,1.05
		c-0.594,0.554-1.408,1.232-2.441,2.039c-1.034,0.805-2.124,1.582-3.271,2.331s-2.397,1.388-3.748,1.917
		c-1.351,0.528-2.572,0.793-3.662,0.793c-1.579,0-2.897-0.472-3.955-1.416c-1.058-0.944-1.587-2.311-1.587-4.102
		c0-1.27,0.362-2.576,1.086-3.918c0.724-1.343,1.737-2.486,3.04-3.43c1.302-0.944,2.677-1.416,4.126-1.416
		c1.123,0,2.039,0.317,2.747,0.952s1.062,1.416,1.062,2.344c0,1.009-0.383,1.941-1.147,2.795c-0.765,0.855-1.668,1.501-2.71,1.941
		c-1.042,0.439-2.043,0.659-3.003,0.659c-0.423,0-0.896-0.04-1.416-0.122c-0.114,0.31-0.171,0.586-0.171,0.83
		c0,0.603,0.146,1.01,0.439,1.221c0.293,0.212,0.797,0.317,1.514,0.317c0.391,0,0.822-0.062,1.294-0.183
		c0.472-0.123,0.952-0.289,1.44-0.501s1.001-0.464,1.538-0.757s1.05-0.598,1.538-0.916c0.488-0.316,0.993-0.65,1.514-1
		c0.521-0.35,0.989-0.684,1.404-1.001s0.822-0.635,1.221-0.952c0.398-0.317,0.728-0.582,0.989-0.793
		c0.26-0.211,0.496-0.398,0.708-0.562L47.237,28.063z M38.277,27.697c-0.944,0.179-1.88,0.757-2.808,1.733
		c0.618-0.081,1.225-0.337,1.819-0.769C37.882,28.23,38.212,27.909,38.277,27.697z"/>
	<path fill="#FFFFFF" d="M55.44,28.454c0.423-0.342,0.887-0.427,1.392-0.256c0.504,0.171,0.846,0.48,1.025,0.928
		c0.179,0.448,0.138,0.916-0.122,1.404c-0.212,0.326-0.623,0.826-1.233,1.502s-1.359,1.448-2.246,2.318
		c-0.887,0.871-1.852,1.62-2.893,2.246c-1.042,0.627-1.961,0.94-2.759,0.94c-1.025,0-1.839-0.346-2.441-1.038
		c-0.603-0.69-0.903-1.566-0.903-2.624c0-1.53,0.423-3.288,1.27-5.273c0.846-1.985,1.497-3.206,1.953-3.662
		c0.358-0.342,0.757-0.521,1.196-0.537c0.439-0.016,0.81,0.102,1.111,0.354c0.301,0.252,0.525,0.562,0.671,0.928
		s0.105,0.761-0.122,1.184c-1.595,2.995-2.45,5.453-2.563,7.373c0.488-0.162,1.119-0.553,1.892-1.172
		c0.773-0.618,1.477-1.245,2.112-1.88s1.233-1.245,1.794-1.831S55.424,28.471,55.44,28.454z M50.851,23.767
		c-0.472,0-0.863-0.154-1.172-0.464c-0.326-0.325-0.488-0.716-0.488-1.172c0-0.456,0.159-0.838,0.476-1.147
		c0.317-0.309,0.704-0.464,1.16-0.464c0.456,0,0.842,0.155,1.16,0.464c0.317,0.31,0.476,0.692,0.476,1.147
		c0,0.456-0.155,0.838-0.464,1.147C51.688,23.588,51.306,23.75,50.851,23.767z"/>
	<path fill="#FFFFFF" d="M70.187,27.99c0.439-0.228,0.834-0.26,1.184-0.098c0.35,0.163,0.639,0.399,0.867,0.708
		c0.228,0.31,0.325,0.667,0.293,1.074c-0.033,0.407-0.212,0.741-0.537,1.001c-0.13,0.114-1.632,1.021-4.504,2.723
		c-2.873,1.701-4.358,2.608-4.456,2.722c-0.195,0.668-0.924,1.555-2.185,2.661c-1.262,1.106-2.535,2.066-3.821,2.881
		c-1.286,0.813-2.108,1.221-2.466,1.221c-0.375,0-0.737-0.131-1.086-0.391c-0.35-0.261-0.586-0.61-0.708-1.05
		s-0.012-0.952,0.33-1.538c0.293-0.488,1.306-1.433,3.04-2.832s2.836-2.246,3.308-2.539c-0.212-0.244-0.603-0.545-1.172-0.903
		c-0.57-0.358-1.091-0.691-1.563-1.001c-0.472-0.309-0.903-0.744-1.294-1.307c-0.391-0.561-0.586-1.191-0.586-1.892
		c0-0.781,0.272-1.542,0.818-2.283c0.545-0.74,1.221-1.367,2.026-1.88s1.66-0.968,2.563-1.367c0.903-0.398,1.725-0.691,2.466-0.879
		c0.74-0.187,1.306-0.281,1.697-0.281c0.732,0,1.27,0.273,1.611,0.818c0.342,0.545,0.382,1.091,0.122,1.636
		c-0.261,0.545-0.749,0.818-1.465,0.818c-3.19,0.944-5.306,2.124-6.348,3.54c0.049,0.033,0.618,0.423,1.709,1.172
		c1.09,0.749,1.831,1.375,2.222,1.88c0.195-0.13,1.514-0.903,3.955-2.319S69.975,28.104,70.187,27.99z"/>
	<path fill="#FFFFFF" d="M83.542,27.941c0.635,0,1.102,0.224,1.402,0.671c0.303,0.448,0.367,0.932,0.195,1.453
		c-0.17,0.521-0.541,0.871-1.109,1.05c-0.977,0.326-2.182,0.488-3.613,0.488c-0.375,0-0.758-0.024-1.148-0.073
		c0,1.091-0.289,2.238-0.867,3.442c-0.576,1.205-1.379,2.238-2.404,3.101s-2.092,1.294-3.197,1.294
		c-1.075,0-2.023-0.488-2.845-1.465c-0.822-0.977-1.233-2.229-1.233-3.76c0-2.49,0.724-4.646,2.173-6.47
		c1.448-1.823,2.889-2.734,4.321-2.734c1.01,0,1.652,0.375,1.93,1.123c0.211,0.619,0.113,1.164-0.293,1.636
		c-0.311,0.342-0.701,0.513-1.172,0.513c-0.83,0.391-1.576,1.229-2.234,2.515c-0.66,1.286-0.989,2.556-0.989,3.809
		c0,0.781,0.13,1.245,0.391,1.392c0.635-0.244,1.273-0.83,1.916-1.758s0.965-1.872,0.965-2.832c0-0.163-0.041-0.459-0.123-0.891
		c-0.082-0.431-0.121-0.712-0.121-0.842c0-0.456,0.17-0.854,0.512-1.196c0.309-0.309,0.717-0.464,1.221-0.464
		c0.113,0,0.529,0.057,1.246,0.171c0.715,0.114,1.391,0.171,2.025,0.171c0.521,0,1.148-0.057,1.881-0.171
		C83.102,27.999,83.493,27.941,83.542,27.941z"/>
	<path fill="#FFFFFF" d="M100.85,28.332c0.277-0.244,0.578-0.374,0.904-0.391c0.324-0.016,0.609,0.057,0.854,0.22
		c0.244,0.163,0.461,0.366,0.646,0.61c0.188,0.244,0.281,0.513,0.281,0.806s-0.082,0.562-0.244,0.806
		c-0.18,0.244-0.418,0.542-0.721,0.891c-0.301,0.351-0.797,0.871-1.488,1.563c-0.692,0.692-1.375,1.307-2.05,1.844
		c-0.676,0.537-1.445,1.018-2.308,1.44c-0.863,0.424-1.652,0.635-2.368,0.635c-1.172,0-2.079-0.545-2.723-1.636
		c-0.643-1.09-0.964-2.336-0.964-3.735v-0.586c-0.732,0.586-1.722,1.575-2.966,2.966c-1.246,1.393-2.426,2.756-3.541,4.09
		c-1.114,1.334-1.745,2.075-1.892,2.222c-0.261,0.26-0.594,0.415-1.001,0.464c-0.406,0.049-0.793-0.004-1.16-0.158
		c-0.365-0.155-0.654-0.432-0.866-0.83c-0.211-0.399-0.26-0.867-0.146-1.404c0.407-1.92,1.526-4.769,3.356-8.545
		c1.832-3.776,2.975-5.867,3.431-6.274c0.521-0.472,1.05-0.671,1.587-0.598s0.96,0.375,1.27,0.903
		c0.309,0.529,0.333,1.079,0.073,1.648c-0.098,0.212-0.48,0.989-1.147,2.332c-0.668,1.343-1.034,2.104-1.099,2.283
		c0.146-0.13,0.484-0.456,1.013-0.977c0.529-0.521,0.993-0.964,1.393-1.331c0.398-0.366,0.874-0.716,1.428-1.05
		c0.553-0.333,1.033-0.5,1.44-0.5c0.781,0,1.358,0.261,1.733,0.781c0.374,0.521,0.569,1.025,0.586,1.514
		c0.049,1.221,0.073,2.132,0.073,2.734c0,0.065-0.004,0.232-0.013,0.5c-0.008,0.27-0.008,0.48,0,0.635
		c0.009,0.155,0.017,0.334,0.025,0.537c0.008,0.204,0.036,0.359,0.085,0.465s0.105,0.166,0.171,0.183
		c0.406-0.065,0.973-0.358,1.697-0.879c0.724-0.521,1.387-1.062,1.989-1.624c0.602-0.562,1.188-1.119,1.758-1.672
		C100.516,28.658,100.817,28.365,100.85,28.332z"/>
	<path fill="#FFFFFF" d="M128.707,28.063c0.424-0.325,0.895-0.395,1.416-0.208c0.521,0.188,0.867,0.5,1.037,0.94
		c0.172,0.439,0.111,0.912-0.182,1.416c-0.146,0.195-0.537,0.603-1.172,1.221s-1.527,1.399-2.674,2.344
		c-1.148,0.944-2.359,1.844-3.639,2.698c-1.277,0.854-2.682,1.586-4.211,2.197c-1.529,0.609-2.938,0.915-4.223,0.915
		c-1.482,0-2.641-0.452-3.48-1.354c-0.838-0.904-1.256-2.201-1.256-3.895c0-1.66,0.5-3.345,1.5-5.054
		c1.002-1.709,2.23-3.101,3.688-4.175s2.836-1.611,4.139-1.611c0.879,0,1.639,0.273,2.281,0.818
		c0.645,0.545,0.965,1.306,0.965,2.283c0,0.635-0.121,1.172-0.365,1.611s-0.635,0.659-1.172,0.659c-0.604,0-1.029-0.244-1.283-0.732
		c-0.252-0.488-0.361-0.903-0.328-1.245c-1.563,0.651-2.943,1.774-4.139,3.369c-1.197,1.595-1.795,3.117-1.795,4.565
		c0,0.358,0.004,0.599,0.012,0.72c0.01,0.123,0.049,0.253,0.123,0.391c0.072,0.139,0.191,0.225,0.354,0.257
		c0.162,0.033,0.398,0.049,0.709,0.049c0.895,0,1.879-0.195,2.953-0.586s2.08-0.875,3.016-1.453
		c0.936-0.577,1.879-1.221,2.832-1.928c0.951-0.709,1.754-1.351,2.404-1.929c0.65-0.578,1.225-1.099,1.721-1.563
		C128.436,28.32,128.691,28.08,128.707,28.063z"/>
	<path fill="#FFFFFF" d="M144.527,28.576c0.391-0.26,0.777-0.362,1.158-0.305c0.383,0.057,0.676,0.212,0.879,0.464
		c0.205,0.252,0.352,0.537,0.439,0.854c0.09,0.317,0.029,0.615-0.182,0.891c-0.146,0.195-0.521,0.61-1.123,1.245
		c-0.604,0.635-1.363,1.372-2.283,2.21s-1.938,1.57-3.053,2.197c-1.113,0.626-2.096,0.939-2.941,0.939
		c-1.465,0-2.49-0.838-3.076-2.515c-0.146,0.13-0.488,0.452-1.025,0.965s-0.965,0.899-1.281,1.159
		c-0.318,0.261-0.744,0.521-1.281,0.781c-0.537,0.261-1.051,0.391-1.539,0.391c-0.977,0-1.721-0.346-2.234-1.037
		c-0.512-0.692-0.768-1.526-0.768-2.503c0-0.667,0.143-1.448,0.426-2.344c0.285-0.896,0.705-1.819,1.258-2.771
		s1.188-1.831,1.904-2.637s1.563-1.465,2.539-1.978s1.969-0.769,2.979-0.769c1.041,0,1.912,0.305,2.613,0.916
		c0.699,0.61,1.049,1.428,1.049,2.454c0,0.358-0.086,0.676-0.256,0.952c-0.172,0.277-0.387,0.472-0.646,0.586
		c-0.262,0.114-0.537,0.159-0.83,0.134s-0.578-0.179-0.855-0.464c-0.277-0.285-0.488-0.671-0.635-1.16
		c-0.748,0.017-1.541,0.395-2.381,1.135c-0.838,0.741-1.563,1.628-2.172,2.661c-0.611,1.034-1.047,2.047-1.307,3.04
		c0.244-0.179,0.717-0.581,1.416-1.208s1.367-1.237,2.002-1.832c0.635-0.593,0.977-0.907,1.025-0.939
		c0.342-0.26,0.732-0.407,1.172-0.439c1.27,0,1.904,0.83,1.904,2.49c0,0.928,0.049,1.498,0.146,1.709
		c0.766-0.195,1.682-0.699,2.746-1.514c1.066-0.813,2.027-1.64,2.881-2.478C144.051,29.02,144.494,28.593,144.527,28.576z"/>
	<path fill="#FFFFFF" d="M156.197,27.526c0.57,0,1.025,0.22,1.367,0.659s0.455,0.916,0.342,1.428s-0.455,0.867-1.025,1.062
		c-0.863,0.31-1.799,0.464-2.807,0.464c-0.848,0-1.611-0.057-2.295-0.171c-0.766,0.439-1.645,1.205-2.637,2.295
		c-0.994,1.091-1.945,2.238-2.857,3.442c-0.912,1.205-1.465,1.904-1.66,2.1c-0.277,0.293-0.613,0.452-1.014,0.476
		c-0.398,0.025-0.764-0.049-1.098-0.219c-0.334-0.172-0.605-0.42-0.818-0.745c-0.211-0.325-0.283-0.659-0.219-1.001
		c0.26-1.563,0.85-3.584,1.77-6.066s1.75-4.533,2.49-6.153c0.74-1.619,1.191-2.567,1.355-2.844c0.275-0.391,0.625-0.618,1.049-0.684
		c0.424-0.065,0.803,0,1.135,0.195c0.334,0.195,0.59,0.488,0.77,0.879s0.195,0.798,0.049,1.221
		c-0.098,0.293-0.504,1.323-1.221,3.088c-0.717,1.766-1.115,2.763-1.195,2.991c0.098-0.065,0.439-0.354,1.025-0.867
		s1.113-0.883,1.586-1.111c0.473-0.228,1.002-0.342,1.588-0.342c0.049,0,0.373,0.045,0.977,0.134
		c0.602,0.09,1.049,0.134,1.342,0.134c0.195,0,0.549-0.061,1.063-0.183C155.77,27.587,156.084,27.526,156.197,27.526z"/>
	<path fill="#FFFFFF" d="M163.424,8.654c0.26-0.423,0.578-0.712,0.953-0.867c0.373-0.154,0.723-0.175,1.049-0.061
		c0.326,0.114,0.627,0.289,0.904,0.525c0.275,0.236,0.451,0.542,0.523,0.916c0.074,0.375,0.037,0.749-0.109,1.123
		c-5.453,12.37-9.863,24.333-13.232,35.889c-0.178,0.586-0.568,0.948-1.172,1.087c-0.602,0.138-1.139,0.016-1.611-0.367
		c-0.471-0.382-0.635-0.924-0.488-1.623c0.83-3.842,2.695-9.77,5.592-17.786C158.729,19.474,161.26,13.195,163.424,8.654z"/>
	<path fill="#FFFFFF" d="M177.219,27.941c0.635,0,1.102,0.224,1.402,0.671c0.303,0.448,0.367,0.932,0.195,1.453
		c-0.17,0.521-0.541,0.871-1.109,1.05c-0.977,0.326-2.182,0.488-3.613,0.488c-0.375,0-0.758-0.024-1.148-0.073
		c0,1.091-0.289,2.238-0.867,3.442c-0.576,1.205-1.379,2.238-2.404,3.101s-2.092,1.294-3.197,1.294
		c-1.074,0-2.023-0.488-2.846-1.465c-0.82-0.977-1.232-2.229-1.232-3.76c0-2.49,0.725-4.646,2.174-6.47
		c1.447-1.823,2.889-2.734,4.32-2.734c1.01,0,1.652,0.375,1.93,1.123c0.211,0.619,0.113,1.164-0.293,1.636
		c-0.311,0.342-0.701,0.513-1.172,0.513c-0.83,0.391-1.576,1.229-2.234,2.515c-0.66,1.286-0.988,2.556-0.988,3.809
		c0,0.781,0.129,1.245,0.391,1.392c0.635-0.244,1.273-0.83,1.916-1.758s0.965-1.872,0.965-2.832c0-0.163-0.041-0.459-0.123-0.891
		c-0.082-0.431-0.121-0.712-0.121-0.842c0-0.456,0.17-0.854,0.512-1.196c0.309-0.309,0.717-0.464,1.221-0.464
		c0.113,0,0.529,0.057,1.246,0.171c0.715,0.114,1.391,0.171,2.025,0.171c0.521,0,1.148-0.057,1.881-0.171
		C176.779,27.999,177.17,27.941,177.219,27.941z"/>
	<path fill="#FFFFFF" d="M192.844,27.99c0.439-0.228,0.834-0.26,1.184-0.098c0.35,0.163,0.639,0.399,0.867,0.708
		c0.227,0.31,0.324,0.667,0.293,1.074c-0.033,0.407-0.213,0.741-0.537,1.001c-0.131,0.114-1.633,1.021-4.506,2.723
		c-2.871,1.701-4.357,2.608-4.455,2.722c-0.195,0.668-0.924,1.555-2.186,2.661c-1.26,1.106-2.535,2.066-3.82,2.881
		c-1.285,0.813-2.107,1.221-2.465,1.221c-0.375,0-0.736-0.131-1.088-0.391c-0.35-0.261-0.586-0.61-0.707-1.05
		c-0.123-0.439-0.012-0.952,0.33-1.538c0.293-0.488,1.305-1.433,3.039-2.832c1.732-1.399,2.836-2.246,3.309-2.539
		c-0.213-0.244-0.604-0.545-1.172-0.903c-0.57-0.358-1.092-0.691-1.563-1.001c-0.473-0.309-0.904-0.744-1.295-1.307
		c-0.391-0.561-0.586-1.191-0.586-1.892c0-0.781,0.273-1.542,0.818-2.283c0.545-0.74,1.221-1.367,2.025-1.88
		c0.807-0.513,1.66-0.968,2.564-1.367c0.902-0.398,1.725-0.691,2.465-0.879c0.742-0.187,1.307-0.281,1.697-0.281
		c0.732,0,1.27,0.273,1.611,0.818c0.342,0.545,0.383,1.091,0.123,1.636c-0.262,0.545-0.75,0.818-1.465,0.818
		c-3.191,0.944-5.307,2.124-6.348,3.54c0.049,0.033,0.617,0.423,1.709,1.172c1.09,0.749,1.83,1.375,2.221,1.88
		c0.195-0.13,1.514-0.903,3.955-2.319S192.631,28.104,192.844,27.99z"/>
</g>
</svg>
